<svg version="1.1" xmlns="http://www.w3.org/2000/svg" viewBox="0 0 635.8825683593749 556.3765201316975" width="1907.6477050781245" height="1669.1295603950925">
  <!-- svg-source:excalidraw -->
  
  <defs>
    <style>
      @font-face {
        font-family: "Virgil";
        src: url("https://excalidraw.com/Virgil.woff2");
      }
      @font-face {
        font-family: "Cascadia";
        src: url("https://excalidraw.com/Cascadia.woff2");
      }
    </style>
  </defs>
  <rect x="0" y="0" width="635.8825683593749" height="556.3765201316975" fill="#ffffff"></rect><g transform="translate(57.85744406960259 258.88402765447427) rotate(0 58.5 22.5)"><text x="0" y="32" font-family="Virgil, Segoe UI Emoji" font-size="36px" fill="#000000" text-anchor="start" style="white-space: pre;" direction="ltr">pending</text></g><g transform="translate(10 246.8010309392755) rotate(0 107.11331454190338 35.44644442471588)"><path d="M16.074662558226407 -1.6230645831674337 M17.971577893434585 0.37708125077188015 C78.82787677139324 -0.6589183711193318, 144.97719971246224 -0.6488181852482076, 197.27225945737547 1.283175265416503 M18.257630024528623 0.39950129110366106 C73.05388671774313 -1.0920220346171015, 128.1324491284259 -0.24572754213396242, 196.386397159997 -0.17578149121254683 M196.50340687144882 0 C207.8194190418968 -1.8827954586595297, 213.80704412964928 4.122418602138302, 215.92990444211114 16.528042923151077 M197.21861311268395 -0.27952933870255947 C210.45980582234134 0.6274833793751893, 212.47683490358116 6.792867068435541, 212.89181429587128 17.078593779499204 M215.6287488935684 19.44855921664697 C213.7186202181584 29.963910496515737, 213.4159012807614 41.79832877772728, 214.04694706184614 51.73878457617349 M214.02148183511395 17.060380561700583 C213.94560869551046 32.45874160263066, 214.41967295623166 46.00190569074091, 214.9333291582932 52.28896217175162 M214.22662908380676 53.16966663707382 C214.83047382144082 65.17447844582294, 207.48343332173917 70.64339566213835, 195.5329157359559 72.31528747064817 M214.9409852435981 51.85585592534727 C214.8480253412557 63.803891429832774, 209.47758446034658 70.91300738055084, 197.7030112565156 72.1961604078469 M198.25958530452436 71.38203183917153 C138.0806028655439 72.20702733672857, 81.4238925365488 70.84672804750204, 19.32484109276396 70.63786492852319 M197.1787111231718 70.50442376995284 C127.71481862009432 72.43999545362117, 58.95181093604759 71.34850384380938, 17.161602501249433 70.94781393075186 M17.72322221235794 70.89288884943176 C6.765313030361673 70.76503986103285, 0.6014809962362051 63.074317429835546, -1.4227991942316294 53.22976188209242 M16.015364460139097 70.89133149368513 C6.275315925899437 71.91481036443088, -1.2265494774095713 64.81532407455762, 0.9486128677614034 55.26140634777359 M1.6987151447683573 51.84841975044793 C-2.058909243170996 43.634274719112405, -0.3768488226578431 32.31854239224465, 0.7353138867765665 16.059850803999723 M-0.6394232334569097 53.57076443858779 C-0.7716476439341486 43.71736218690191, 0.00000496517572995403 34.592137005833706, 0.770657884888351 18.149983657947303 M0 17.72322221235794 C1.4907172676175833 4.320965905814907, 6.699842752098581 -0.44365102611482143, 18.126702300696195 0.3873441759496927 M0.5213184114545584 18.284261535345138 C0.13343376116827121 6.888826091076723, 6.878845525208405 2.199209758173674, 19.941756114693852 -1.7500003431923687" stroke="#000000" stroke-width="2" fill="none"></path></g><g transform="translate(403.07439630681813 385.3340787020594) rotate(0 107.11331454190338 35.44644442471588)"><path d="M16.635598472742856 -0.6855349596589804 M16.826950381933273 0.06247357092797756 C75.86362589024775 0.12560123185759786, 136.63381618432882 -1.483803510860145, 194.88034228828138 1.0495059248059988 M17.91176283774388 -0.9554719952866435 C78.03033611454833 0.38938482782348083, 137.93118459124292 0.16242092034324096, 197.14499450415707 0.07661846000701189 M196.50340687144882 0 C209.38770397069547 0.7990025822073221, 214.88027481345284 6.040756483703396, 215.12599508074868 19.019260595975936 M197.30649414133615 1.8256047312170267 C210.27765500840414 -1.3744561825878918, 213.65223938368086 3.742525959994188, 213.95750674746756 17.31892478256908 M213.9470997451042 16.562513701109708 C213.34966601120317 29.475183172246886, 214.4558501957544 35.98224923457059, 214.99630415422666 54.15499087643212 M215.08929758595127 17.594489230266333 C213.81836274141364 25.571634074331342, 213.54544919604353 33.89038982690465, 213.5111880533566 54.115685777145984 M214.22662908380676 53.16966663707382 C213.81633458642114 63.6594648106644, 208.26025058391187 72.38945800049055, 195.08322771858758 69.42500108463514 M215.11611984280694 53.778094334866466 C213.1105642779899 66.620906526378, 209.01330979463327 71.11061873335215, 198.12881704276762 68.8672685791907 M195.18959615972227 71.93602309731591 C151.47077126848586 72.07179705192577, 103.14439670989103 72.53901431848537, 17.740716587244094 71.36385897902596 M196.7479783663187 70.60351771378714 C158.73329528646366 72.76704293939522, 120.51712275806126 73.26354781243256, 17.595710251903654 71.76304576063353 M17.72322221235794 70.89288884943176 C7.25834924089863 70.11595869047392, 0.8042969461530447 65.20303586559986, -1.3114787582308054 54.7785280778665 M19.38297723927957 68.92779338342893 C4.271521664086274 70.96199838120314, 0.9862081368453799 64.83812177532037, -1.291725335549563 53.29599432411006 M-0.001557355746626854 53.99454739164895 C2.1575648641588865 41.78934577302797, 1.2272881722452817 28.703198948718505, -0.14767307601869106 17.39616971412164 M-0.660623443312943 52.21543447800315 C0.40000712897537727 40.91808211054841, -0.23071357581855276 29.260558425039473, -0.8316857041791081 17.422595782628775 M0 17.72322221235794 C-1.2788464669138193 6.709936340480587, 4.691694499134561 0.23203014768660069, 18.64644329944116 0.8050945941358805 M0.3272589799016714 18.841441045938552 C0.46400210158899435 6.353186539794794, 7.6220655952128675 -1.824791056383401, 19.495735347601148 0.9815513248555363" stroke="#000000" stroke-width="2" fill="none"></path></g><g transform="translate(392.80761718749966 377.7120083895594) rotate(0 116.26059792258525 43.49645441228694)"><path d="M22.29018950750206 1.0622488800436258 M21.409969470548372 -0.039154911413788795 C78.66694991098628 -1.7076049070867811, 130.0560657426595 0.9904606718507494, 211.47346494939524 1.6573977824300528 M22.159542724574845 0.6113902004435658 C81.21928366732052 2.1905047615175173, 140.49919653847195 1.8826969285612034, 211.22265163749802 0.6480191918089986 M210.77296863902706 0 C225.9254325061021 0.13301574625074863, 233.32428311505785 9.07501379993152, 233.5900114695119 22.5472297883508 M210.5389492161234 -0.35156298242509365 C224.69739707633013 -2.165214777458459, 232.03867314788943 5.196288613102997, 234.47996250722056 20.373771023555587 M231.9606493818151 23.609894576567154 C233.00604089067747 34.83105015647503, 233.23007823990156 51.942317659600675, 231.10755390995612 63.334826884113966 M232.45141730127355 21.468134755353372 C232.5537339676679 37.756684538142345, 232.18098502648482 54.89084303217399, 231.8111062687399 64.51073773603213 M232.52119584517052 65.24468161843043 C232.4625580827283 81.24006890691821, 226.1612775354562 87.60133652236657, 210.36267414164143 85.6672255232592 M233.9345959941434 63.48327268778604 C233.2156172934497 79.96122963977982, 224.31101349814887 86.7059916591865, 209.6569038332102 88.6286672389728 M211.90624825504023 87.53325339626865 C146.28681706577908 88.9863615702587, 83.87251931462829 88.44976986159857, 19.947352848100405 88.98677172731952 M210.53887993783104 87.29721339173959 C136.55324915224708 87.2467352238433, 64.0344943966314 87.31608269484207, 21.092487827028076 87.79733954497026 M21.74822720614348 86.99290882457392 C8.053706014867538 87.21079657819466, 1.65975502692163 77.7784042898566, 1.350608503445983 64.4677514594726 M20.624987783926468 87.10275898721413 C8.235617205559873 86.84588248791518, 0.6917031456716356 77.54604447139431, -1.6362190733663735 65.31379115020182 M1.8189040962606668 65.56431221707982 C0.8889661016132464 54.84346837488239, -0.1473343787525067 46.24833215902774, 0.8488576356321573 20.95515680600975 M0.25944949965924025 65.13147966961634 C-0.08392343027719523 48.86899794543872, -0.5443379293216135 31.45737395594127, 0.46161054354161024 22.15077450321142 M0 21.74822720614348 C-1.2160462383180857 7.481439216401094, 7.576668048616165 1.1182188335806131, 20.46938073922966 0.8021956030279398 M1.541315769776702 22.601750097322206 C1.7143248577602206 5.424618012331093, 8.160326385557317 -0.5101986800320446, 22.212229307732475 0.4454458023421468" stroke="#000000" stroke-width="2" fill="none"></path></g><g transform="translate(403.62815163352286 107.98636141690258) rotate(0 107.11331454190338 35.44644442471588)"><path d="M18.933650504289687 0.5840798374265432 M16.54116552272302 0.9415346328169107 C55.350824909816 -1.6363719223699016, 92.27715872012675 1.6756724001207906, 197.13015034269876 1.5341007057577372 M18.62557528769088 -0.5147006036713719 C77.38586655982542 -1.231902166678281, 135.31598529320263 -1.8668095017212345, 196.93323175736106 0.07706786971539259 M196.50340687144882 0 C209.110280190284 1.2756983395665884, 213.4611783025955 4.833080888866922, 214.51290714723814 16.651622108607114 M197.59785578992552 -1.8562562111765146 C207.39885768645127 2.200015829969197, 215.59075752693985 4.751819214645317, 214.98152392703864 16.052199858757227 M215.2911206891929 17.79750580662352 C215.67441534466644 27.784246688718177, 213.07605605788132 41.80638223939194, 215.30933628586877 52.52901737239546 M213.62084988022048 18.15528589901936 C214.54804929905146 27.1028953567847, 214.44710868411272 35.848832260533925, 213.23511177563864 53.63768405408001 M214.22662908380676 53.16966663707382 C215.1636559365486 64.20835681321715, 207.82610580759737 71.78696052340615, 195.84087948348707 70.03334454802621 M215.96040350181806 52.194598460908594 C215.37043107051227 63.65084837373962, 209.536223787597 72.4919730856252, 197.06008544924072 69.12451744220975 M197.3213055975396 71.68229597789991 C133.4961580695901 70.41571549529553, 67.02328066798339 71.75135753507138, 17.977492205290616 72.75971770269621 M196.93446685500777 70.58935522364277 C127.84093213515747 69.54332603083668, 58.42247389998735 69.0244884894949, 18.416979683986426 71.25980182813305 M17.72322221235794 70.89288884943176 C4.376976390510341 71.36709759739983, -1.4695268329232931 65.45539607169722, -1.4872102197259665 52.04515024494714 M17.06248576515776 72.48384604958642 C7.910179371621004 70.80819879017595, 1.3261496628634633 65.95552419420947, 1.2592599655501542 54.50746370857915 M-1.0053314212709665 52.816630466248455 C-1.7486571346708808 41.80062432015092, 0.35289660344633716 32.463323389507494, -0.4264392498880625 17.074190865694106 M-0.5117875663563609 52.67205104917622 C-0.44822886937600964 45.96584254679997, -0.8346118366096675 36.70700934197011, -0.9218214778229594 18.47866622028363 M0 17.72322221235794 C0.22932683862745762 7.74356812345936, 7.131490667491695 -0.3671270851045847, 17.798635374246658 0.26873753033578396 M-1.5915250834077597 17.21592103639108 C1.8327591652981932 7.82540884656041, 7.8650354782599115 1.1744335074909031, 17.79789735167709 -1.7563499252311883" stroke="#000000" stroke-width="2" fill="none"></path></g><g transform="translate(393.3613725142044 100.36429110440258) rotate(0 116.26059792258525 43.496454412286994)"><path d="M19.866059622812013 1.8885850068181753 M22.56648791124199 -1.7375041898339987 C78.32162813719872 0.6846734300650856, 133.65126749340445 0.6442340031661293, 211.3481362707575 -0.08324874006211758 M22.635387385348718 0.10901041608303785 C92.67494703387409 0.4470145662833861, 163.9479022588765 1.0499793549586944, 210.91610767074275 -0.5358000518754125 M210.77296863902706 0 C224.50633599524477 -1.0746598485857248, 233.61564476364723 5.393152857537979, 233.3125876891004 23.023925545710068 M211.42939893748957 -1.453062916174531 C226.63591521958912 -1.1559215228073298, 233.03336841254927 5.331409007370139, 231.6011651852677 23.948243036112675 M234.26457463899126 20.385983727025728 C231.89772340513585 36.82625304108677, 233.83541110016225 48.790381379195665, 231.7405405561017 66.2332229775123 M232.66741467868408 21.877539739097397 C232.30298158861834 38.51059780316659, 231.2661860618754 56.49120816673529, 232.18993215118965 64.81490946772766 M232.52119584517052 65.24468161843043 C232.0284133064138 80.63757142983381, 227.00556119446733 86.0178406484087, 211.7099954917689 86.21611752581195 M233.00526417368522 63.706967351280866 C233.73853128641343 81.34258399205287, 226.66695207039916 89.01681275373669, 211.91677062573257 85.65860908633442 M212.24446692537862 85.68668930080132 C144.77738806129656 87.76841873229701, 80.08134153058853 89.60582506955821, 23.443803134459 86.13854454305367 M210.9013181788509 86.55354566067801 C163.18982576095408 85.46095446802674, 117.2990091929718 86.78606815196572, 21.004622096280496 86.43065062851058 M21.74822720614348 86.99290882457392 C5.7798822357912005 87.46315678429202, -0.6607364472001791 81.33445695601408, -1.5307643469423056 65.71889036639851 M22.843235871839266 88.1562106258829 C8.575558731577956 87.96328490680428, -0.7761346583254636 81.9474077274092, 2.0024386341683567 65.15999155917463 M-1.409001911059022 63.3134328883819 C0.9111935887309572 49.151448204895345, -0.20779748821530125 36.070695592331646, -1.3921348098665476 22.008820138025026 M-0.40204340498894453 66.207479397089 C-0.565816926734655 54.06409158351022, -0.6992120323350121 43.89777267099344, 0.0377065809443593 21.88259597131137 M0 21.74822720614348 C1.2237499300390482 6.882281983609909, 5.657883985306734 -0.5073011759668589, 21.977554044770937 1.835827386006713 M0.06493490375578403 20.22096640159462 C1.9572947408072645 8.423842576205397, 7.9292491620999215 0.16114780800417083, 23.58098637144167 1.9176681091077628" stroke="#000000" stroke-width="2" fill="none"></path></g><g transform="translate(445.08006702769933 124.04463334516981) rotate(0 66.5 22.5)"><text x="0" y="32" font-family="Virgil, Segoe UI Emoji" font-size="36px" fill="#000000" text-anchor="start" style="white-space: pre;" direction="ltr">fulfilled</text></g><g transform="translate(434.54795143821013 397.38144753196013) rotate(0 72.5 22.5)"><text x="72.5" y="32" font-family="Virgil, Segoe UI Emoji" font-size="36px" fill="#000000" text-anchor="middle" style="white-space: pre;" direction="ltr">rejected</text></g><g><g transform="translate(312.4384654651989 19.264659534801012) rotate(0 -0.5733101994137542 263.2078788120977)"><path d="M0.8120673675090075 -0.6961029727011918 C0.5485341253267129 87.0456018839257, -2.1809075199631858 438.78729504792744, -1.9586877663365612 527.1118605968965" stroke="#364fc7" stroke-width="2.5" fill="none" stroke-dasharray="12 8"></path></g></g><g><g transform="translate(232.87386807528424 254.92479969146916) rotate(0 79.76385846818715 -56.182419248317956)"><path d="M-1.9111627418547867 0.6632879275828598 C25.455705649687946 -17.710262524455036, 134.95565856960465 -90.46024633680406, 161.43887967822909 -109.10512387115804 M2.246824699044228 -1.4449524360895158 C29.70515340676814 -20.697580506249512, 133.74743477895407 -95.24417816362902, 160.4882848489827 -113.0281264242187" stroke="#000000" stroke-width="2" fill="none"></path></g><g transform="translate(232.87386807528424 254.92479969146916) rotate(0 79.76385846818715 -56.182419248317956)"><path d="M144.12699652574608 -85.13705242618356 C149.32791838245743 -96.19252529203142, 149.8117538902412 -100.975872571131, 156.8751747350937 -113.46643395912199 M145.1058673180605 -90.06503661728833 C149.44879575689063 -97.39776579051616, 155.91876915395238 -105.86448597033633, 161.57682164234876 -112.26857385043351" stroke="#000000" stroke-width="2" fill="none"></path></g><g transform="translate(232.87386807528424 254.92479969146916) rotate(0 79.76385846818715 -56.182419248317956)"><path d="M132.42618029449753 -101.99560817418256 C140.11982356753845 -109.49695977298184, 142.9595638178528 -110.88591552810747, 156.8751747350937 -113.46643395912199 M133.40505108681194 -106.92359236528733 C142.06217123275928 -108.12155685140125, 152.76110707073835 -110.4951808183266, 161.57682164234876 -112.26857385043351" stroke="#000000" stroke-width="2" fill="none"></path></g></g><g><g transform="translate(231.0161798650563 311.7386235434333) rotate(0 79.58493941395824 53.678549319470676)"><path d="M-0.8637489419430493 -2.025176532939076 C25.88237005188844 16.152510619934162, 133.34529826068785 88.89768789547563, 160.03362776985952 107.25249436699308 M3.862834561765194 3.0471309676766394 C30.448236975046807 21.62142506415721, 133.12688561247197 91.52741253291946, 158.82898999108562 109.3822751718805" stroke="#000000" stroke-width="2" fill="none"></path></g><g transform="translate(231.0161798650563 311.7386235434333) rotate(0 79.58493941395824 53.678549319470676)"><path d="M126.890165234157 104.59524807801749 C133.99392649295075 105.8113063362525, 143.46396118065866 107.26888989942773, 162.2169219228495 112.24455334648944 M127.97671950998262 101.65669645650591 C137.56345189627814 104.48547957636029, 142.53574533093902 107.60088120477016, 157.28893773174474 109.51966452815093" stroke="#000000" stroke-width="2" fill="none"></path></g><g transform="translate(231.0161798650563 311.7386235434333) rotate(0 79.58493941395824 53.678549319470676)"><path d="M138.51060871079048 87.6811919177641 C142.09301174916547 93.63211652743249, 148.26080118183108 99.89626034031146, 162.2169219228495 112.24455334648944 M139.5971629866161 84.74264029625252 C146.54889780074092 91.22582535643072, 148.89794394082259 98.15947644769152, 157.28893773174474 109.51966452815093" stroke="#000000" stroke-width="2" fill="none"></path></g></g><g transform="translate(323.14092462713063 10) rotate(0 63.5 22.5)"><text x="0" y="32" font-family="Virgil, Segoe UI Emoji" font-size="36px" fill="#364fc7" text-anchor="start" style="white-space: pre;" direction="ltr">settled</text></g></svg>